<?xml version="1.0" encoding="UTF-8"?>
<svg id="Calque_1" data-name="Calque 1" xmlns="http://www.w3.org/2000/svg" viewBox="0 0 1800 666.38">
  <defs>
    <style>
      .cls-1 {
        fill: #706b6b;
      }

      .cls-1, .cls-2, .cls-3, .cls-4, .cls-5, .cls-6, .cls-7, .cls-8, .cls-9, .cls-10, .cls-11, .cls-12 {
        stroke-width: 0px;
      }

      .cls-2 {
        fill: #fe5448;
      }

      .cls-3 {
        fill: #747070;
      }

      .cls-4 {
        fill: #fe5346;
      }

      .cls-5 {
        fill: #686464;
      }

      .cls-6 {
        fill: #fe5c50;
      }

      .cls-7 {
        fill: #7b7777;
      }

      .cls-8 {
        fill: #fe5145;
      }

      .cls-9 {
        fill: #fefefe;
      }

      .cls-10 {
        fill: #bdbdbd;
      }

      .cls-11 {
        fill: #625d5d;
      }

      .cls-12 {
        fill: #fcfbfb;
      }
    </style>
  </defs>
  <path class="cls-9" d="M439.98,666.25H.12C.12,446.16.14,226.06,0,5.96,0,1.1,1.1,0,5.98,0c596.01.13,1192.03.13,1788.04,0,4.88,0,5.98,1.09,5.98,5.96-.14,218.15-.14,436.3,0,654.45,0,4.87-1.1,5.97-5.98,5.97-133.39-.15-266.78-.12-400.16-.12,2.54-5.71,5.56-11.26,7.49-17.16,1.71-5.22,5.08-6.89,10-7.52,36.56-4.63,59.62-36.34,53.26-72.26-3.21-18.18-3.08-36.44,1.73-54.52,5.44-20.46,15.34-38.92,25.41-57.29,6.84-12.48,15.24-24.15,19.36-38,5.71-19.2-5.39-34.67-25.23-36.54-9.05-.85-18.18-.02-27.13-1.72-23.03-4.37-43.9-14.22-64.31-25.28-4.89-2.65-8.94-6.87-14.66-8-.3-4.11,1.03-9.97-6.65-6.25-4.04-2.89-8.22-5.59-12.09-8.69-15.42-12.34-32.94-20.56-52.48-22.22-25.87-2.21-48.33-12.64-70.25-25.11-5.91-3.36-10.61-8.24-14.32-13.91-5.08-7.78-9.22-16.28-15.04-23.44-17.25-21.24-26.08-25.74-50-16.97-6.82,2.5-12.51,2.2-17.7-3.16-1.79-1.85-4.17-3.13-5.94-5-16.97-17.92-37.44-30.74-59.98-40.23-26.6-11.21-47.56-29.45-66.62-50.52-4.84-5.35-8.56-11.95-15.18-15.63-1.15-4.66-.69-9.42-.56-14.12.11-3.59-.81-5.91-4.2-7.73-8.13-4.37-16.13-9.02-23.99-13.86-2.74-1.69-5.09-1.64-7.75-.42-6.05-3.68-12.09-7.39-18.16-11.04-3.32-2-6.49-1.46-9.73.46-10.73,6.36-21.48,12.7-32.34,18.86-2.94,1.67-4.51,3.79-4.57,7.1-2.47-.19-4.55.97-6.74,1.86-9.94,4.02-17.9,10.81-25.46,18.14-7.74-.81-7.86-.69-6.06,5.98-10.71,17.32-18.61,35.95-25.65,54.99-9.31,25.16-24.43,45.99-46.41,61.73-12.37,8.86-25.57,16.19-39.27,22.74-17.5,8.36-33.6,18.58-46.25,33.73-5.79,6.93-11.65,13.94-19.13,19.28-3.42,2.44-6.6,4.74-11.13,2.19-15.28-8.58-31.08-16.38-44.89-27.25-12.72-10.01-24.62-20.36-41-25.12-21.07-6.12-34.12-2.82-44.64,16.63-16.18,29.89-19.45,62.23-15.5,95.43,2.26,19.06,9.11,36.83,18.35,53.61,2.28,4.14,1.56,6.29-2.39,8.83-11.66,7.49-24.37,9.42-37.82,8.13-19.46-1.87-37.1-7.77-51.2-22.17-9.54-9.74-18.04-20.45-28.22-29.58-9.62-8.62-19.95-12.69-32.55-6.2-4,2.06-8.5,3.17-12.74,4.78-20.1,7.62-41.37,6.06-62.17,7.26-20.31,1.17-40.74.36-61.12.3-9.43-.03-16.72,3.95-22.16,11.39-6.18,8.46-9.5,18.1-9.11,28.49.74,19.81.57,39.71,3.84,59.34,3.01,18.02,9.35,34.28,23.26,47.31,12.03,11.27,25.8,19.69,40.13,27.25,39.33,20.77,80.94,33.48,125.84,34.13,13.7.2,18.9,4.37,23.06,17.41,4.11,12.88,5.51,26.13,4.9,39.61ZM127.96,106.6v5.83q0,15.14,15.18,14.98c12.94-.14,19.29-6.58,19.45-19.72.17-14.05-6.06-20.88-19.37-21.21-3.03-.08-6.08.24-9.08-.08-4.67-.5-6.77.87-6.28,5.98.45,4.7.1,9.49.1,14.24ZM1449.36,353.95c6.18,1.7,9.86.57,10.89-5.31.46-2.64,2.29-3.31,4.78-3.19,3.02.14,6.06.14,9.09,0,2.53-.12,4.13.69,4.68,3.3,1.37,6.48,5.5,7.05,11.13,4.98-4.96-12.32-9.95-24.48-14.7-36.74-1.09-2.81-2.79-3.49-5.43-3.3-2.31.17-4.66-.39-5.84,2.73-4.72,12.47-9.65,24.86-14.6,37.52ZM343.94,125.49c0,3.71.11,6.68-.03,9.64-.14,2.88,1.22,3.67,3.9,3.73,2.96.07,4.33-.73,4.3-3.97-.14-11.25-.09-22.5-.03-33.75.01-2.4-1.07-4.35-3.31-3.32-4.75,2.18-9.01.06-13.51-.4-4.54-.46-7.76,2.14-9.97,6-3.47,6.07-3.12,15.38.97,20.29,4.88,5.85,10.86,5.07,17.68,1.78ZM246.83,107.15c0-5.68.09-10.12-.03-14.55-.08-2.74,1.31-6.2-3.92-6.27-4.98-.06-4.27,2.98-4.27,5.98.01,9.51-.08,19.02.06,28.53.04,2.82-1.66,6.68,4.1,6.69,5.21,0,3.99-3.32,4.04-6.11.04-2.26.13-4.82,2.37-5.6,3.04-1.06,3.15,2.31,4.07,3.91,2.71,4.7,4.76,10.1,12.07,7.04-.35-2.8-2.28-4.97-3.62-7.36-5.71-10.16-5.76-10.14,1.68-19.21.59-.72.86-1.43.51-1.91-8.58-3.74-11.23,4.28-17.03,8.86ZM1591.07,340.09c0-3.45-.07-6.91.02-10.36.08-2.86-.1-4.95-4.02-4.92-3.66.03-4.32,1.64-4.24,4.75.12,4.52,0,9.06-.14,13.59-.13,3.95-2.54,6.03-6.27,5.88-3.52-.14-4.42-2.86-4.39-6,.04-4.53-.16-9.07.03-13.59.14-3.25-.8-4.61-4.33-4.62-3.47,0-3.85,1.65-3.78,4.39.13,5.18-.1,10.36.11,15.53.37,8.81,6.43,12.72,14.63,9.51,2.09-.82,3.39-1.82,6.11-.1,2.83,1.79,6.93,1.33,6.32-4.35-.34-3.2-.06-6.47-.06-9.7ZM196.03,113.08c0-3.67-.07-7.34.02-11,.07-2.69-.3-4.48-3.78-4.49-3.4,0-4.6,1.13-4.48,4.5.16,4.74.01,9.49-.19,14.23-.15,3.69-2.64,5.51-5.99,5.49-3.5-.02-4.62-2.6-4.61-5.8.02-4.96-.13-9.93,0-14.89.08-3.06-1.58-3.47-4.08-3.49-2.52-.02-4.12.36-4.02,3.45.19,5.82-.13,11.66.21,17.47.43,7.42,6.02,11.18,13.08,8.9,2.9-.94,5.16-2.17,8.55-.32,2.87,1.57,5.82.19,5.34-4.35-.34-3.2-.07-6.47-.07-9.7ZM204.2,112.65c0,3.45.06,6.91-.02,10.36-.06,2.53-.17,4.6,3.55,4.5,3.2-.08,4.71-.72,4.54-4.3-.23-4.73-.16-9.51.25-14.23.29-3.33,2.33-5.56,6.02-5.52,3.89.05,4.41,2.88,4.5,5.83.13,4.75.26,9.5.09,14.24-.12,3.26,1.34,4.02,4.28,3.93,2.52-.08,4.13-.44,4.03-3.51-.18-5.82.19-11.68-.24-17.47-.52-7.03-5.96-10.94-12.73-8.79-3.42,1.09-6.07,1.84-9.58.18-2.51-1.18-5.02-.11-4.74,3.77.26,3.65.06,7.34.05,11.01ZM391.93,112.34c-.18,11.78,9.26,18.84,19.9,14.85,3.17-1.19,5.56-3.31,6.77-6.54.43-1.16-.59-1.53-1.35-1.77-3.05-.94-5.9-1.11-7.99,2.04-.39.59-1.51.93-2.32.97-3.21.16-5.77-1.22-6.02-4.5-.27-3.61,2.95-2.25,4.77-2.37,3.23-.22,6.5-.24,9.73-.02,3.64.26,4.34-1.25,3.95-4.61-1-8.62-6.2-13.46-14.6-13.11-7.56.31-12.72,6.36-12.85,15.06ZM268.3,112.65c0,11.28,8.45,17.86,18.95,14.82,3.55-1.03,6.09-3.18,7.65-6.48.44-.92,0-1.64-.95-1.99-3.32-1.21-6.29-1.04-8.53,2.12-.11.16-.36.23-.55.33-2.24,1.12-4.22.49-5.99-1-1.21-1.01-2.17-2.39-1.58-3.96.94-2.52,3.32-1.38,5.08-1.48,3.24-.19,6.5-.2,9.74-.02,3.3.19,3.97-1.18,3.69-4.26-.78-8.6-5.98-13.65-14.3-13.47-7.87.18-13.2,6.4-13.2,15.38ZM1530.44,339.9c0,11.45,8.23,17.93,18.81,14.81,3.52-1.04,6.13-3.09,7.57-6.51.41-.96-.02-1.68-.95-2-3.32-1.18-6.29-.98-8.52,2.18-.22.31-.72.5-1.12.61-2.34.67-4.26-.14-5.84-1.83-.89-.96-1.68-2.24-1.12-3.49,1.05-2.35,3.37-1.32,5.16-1.42,3.02-.17,6.07-.27,9.08,0,4.04.37,4.72-1.54,4.27-4.99-1.1-8.47-6.58-13.22-14.98-12.72-7.55.45-12.35,6.42-12.36,15.36ZM386.39,112.56c0-3.45-.16-6.91.05-10.35.19-3.25-.82-4.62-4.34-4.62-3.43,0-3.89,1.62-3.84,4.39.08,4.31-.03,8.63-.14,12.94-.1,3.93-1.72,6.92-6.04,6.88-4.42-.04-4.85-3.53-4.9-6.93-.06-4.31-.14-8.63,0-12.94.09-2.85-.53-4.36-3.88-4.32-3.1.03-4.19,1.05-4.09,4.12.19,5.6-.14,11.23.15,16.83.39,7.36,6.05,11.03,13.15,8.99,2.73-.78,4.89-3.88,8.6-.45,1.98,1.83,5.81.5,5.34-4.18-.34-3.42-.07-6.9-.07-10.35ZM1625.62,353.85c-2.51-3.58-4.87-7.37-7.67-10.8-2.35-2.88-2.13-5.11.05-7.96,2.27-2.98,5.13-5.72,6.14-9.43-7.41-3.1-10.33,2.15-13.42,6.9q-6.77-8.53-14.96-6.17c12.31,8.93,9.05,17.88.64,26.74-.21.22-.03.8-.03.78,8.09,4.09,10.28-3.24,14.31-8.01,3.43,5.73,6.51,11.42,14.95,7.96ZM1524.69,334.6c0-5.6-.12-11.2.05-16.79.09-3.01-.89-4.26-4.05-4.19-2.91.06-4.29.8-4.24,4.04.15,10.98.14,21.96,0,32.94-.04,3.06.96,4.15,4.08,4.13,2.97-.02,4.32-.78,4.21-3.98-.19-5.38-.05-10.76-.05-16.15ZM1494.12,339.73c0,3.67.18,7.35-.06,11.01-.21,3.26,1.21,3.92,4.17,3.99,3.24.08,4.05-1.16,3.95-4.14-.13-4.09-.1-8.22.34-12.28.41-3.72,1.13-7.5,6.69-6.32,3.25.68,2.79-2.59,3.55-4.32.91-2.07-.76-2.93-2.29-2.87-4.88.2-9.65,1.61-14.68.41-1.87-.45-1.63,2.09-1.65,3.51-.06,3.67-.02,7.34-.02,11.01ZM302.09,112.37c0,3.45.11,6.91-.03,10.36-.12,2.94.17,4.78,4.03,4.81,3.83.02,4.12-1.73,4.07-4.71-.07-4.09,0-8.21.43-12.28.39-3.61,1.47-7.08,6.47-5.76,2.14.56,2.69-.95,3.05-2.39.33-1.33,1.93-3.01.2-4.11-5.06-3.2-10.46,2.51-15.81-.43-1.59-.88-2.41,1.16-2.39,2.85,0,.86-.01,1.73-.01,2.59,0,3.02,0,6.05,0,9.07ZM767.34,114.84c-2.6-.18-3.21,1.23-3.27,3.55-.09,3.09,1.68,3.4,4.09,3.41,2.95,0,2.71-1.96,2.8-3.92.12-2.69-1.37-3.29-3.62-3.04ZM1414.92,347.72c2.78.41,2.77-1.59,2.86-3.68.11-2.53-.97-3.44-3.47-3.38-2.68.06-3.19,1.5-3.21,3.76-.02,2.56,1.18,3.53,3.81,3.29ZM703.97,121.34c2.26.18,3.78-.27,3.77-3.06-.01-2.69-.88-3.92-3.76-3.86-2.57.06-3.35,1.18-3.41,3.56-.07,2.52.91,3.64,3.4,3.36ZM755.67,121.8c2.33.24,2.76-1.43,2.79-3.66.04-2.51-1.1-3.36-3.52-3.42-2.95-.07-3.71,1.37-3.6,3.98.11,2.66,1.75,3.15,4.33,3.1ZM809.17,118.5c.34-2.5-.91-3.36-3.35-3.31-2.14.05-3.76.21-3.76,3.03,0,2.76,1.24,3.8,3.86,3.9,2.62.1,3.4-1.25,3.25-3.62ZM504.65,116.51c.2-2.58-1.1-3.33-3.52-3.4-3.06-.08-3.57,1.51-3.57,4.04,0,2.92,1.85,2.85,3.91,2.93,2.63.09,3.47-1.21,3.18-3.57ZM551.84,113.48c-2.48-.22-3.53.9-3.52,3.39,0,2.33.67,3.63,3.29,3.69,2.76.06,3.93-.96,3.86-3.78-.06-2.56-1.23-3.51-3.63-3.3ZM599.13,117.31c-.2,2.48.86,3.49,3.38,3.55,2.92.07,3.71-1.25,3.72-3.9.01-2.83-1.61-3.02-3.78-3.07-2.5-.06-3.65.93-3.32,3.42ZM567.88,116.96c.29-2.02-.21-3.49-2.96-3.5-2.62,0-3.94.75-3.87,3.65.06,2.51,1.11,3.34,3.48,3.39,2.44.05,3.66-.8,3.34-3.54ZM720.13,117.6c.3-2.6-1.13-3.09-3.44-3.14-3.1-.06-3.31,1.7-3.34,4.07-.03,2.98,1.98,2.62,3.88,2.75,2.82.19,3.08-1.54,2.89-3.68ZM745.66,117.95c.24-2.81-1.5-3.07-3.65-3.17-2.68-.13-3.14,1.26-3.19,3.54-.06,2.78,1.5,3,3.67,3.03,2.51.04,3.54-1.01,3.18-3.39ZM796.39,118.31c.6-2.44-.9-3.02-3.24-3.07-2.25-.04-3.64.4-3.58,3.11.05,2.35.68,3.57,3.28,3.45,2.21-.1,3.84-.51,3.54-3.49ZM818.45,122.02c2.6.41,3.21-.99,3.25-3.31.04-2.33-.59-3.46-3.19-3.47-2.7,0-3.8.84-3.68,3.66.11,2.56,1.27,3.37,3.62,3.12ZM1405.13,344.05c.3-2.06-.59-3.33-3.21-3.33-2.05,0-3.2.48-3.34,2.84-.16,2.78.98,3.98,3.65,4.1,2.37.11,3-1.23,2.89-3.61ZM517.11,116.43c.29-2.51-.92-3.24-3.34-3.27-3.01-.04-3.42,1.51-3.45,3.98-.03,2.91,1.81,2.75,3.79,2.86,2.72.16,3.25-1.34,2.99-3.57ZM542.65,116.88c.3-2.57-1.02-3.34-3.38-3.41-2.43-.07-3.45.74-3.47,3.27-.01,2.52.96,3.37,3.41,3.3,2.24-.06,3.84-.46,3.44-3.17ZM614.97,114.04c-2.6-.31-3.1,1.12-3.14,3.43-.06,3.09,1.7,3.3,4.08,3.33,2.99.03,2.63-1.97,2.76-3.87.18-2.82-1.55-3.07-3.7-2.88ZM593.38,116.81c.5-2.75-1.45-2.74-3.53-2.86-2.56-.15-3.29.99-3.3,3.39,0,2.63,1.25,3.21,3.57,3.16,2.44-.05,3.57-1.03,3.25-3.69ZM577.55,120.4c2.86.28,3-1.52,3.06-3.69.08-3.12-2.05-2.6-3.96-2.71-2.48-.14-2.67,1.33-2.74,3.28-.09,2.72,1.34,3.35,3.64,3.11ZM640.86,120.73c2.58.27,3.28-1.05,3.34-3.39.08-2.78-1.5-2.93-3.63-3.05-2.61-.14-3.23,1.05-3.23,3.39,0,2.59,1.21,3.37,3.51,3.05ZM529.79,117c.33-2.47-.71-3.5-3.25-3.5-2.52,0-3.41.97-3.39,3.45.02,2.21.79,3.1,3.02,3.05,2.1-.05,4.05-.03,3.63-3ZM656.9,117.8c.24-2.36-.61-3.53-3.19-3.56-2.61-.03-3.96.65-3.9,3.57.06,2.61,1.29,3.22,3.6,3.21,2.31,0,3.78-.6,3.5-3.22ZM1392.36,344.22c.33-2.54-.92-3.41-3.35-3.4-2.2,0-2.96.9-3.04,3.07-.1,2.56.89,3.41,3.36,3.3,2.06-.09,3.36-.61,3.03-2.97ZM491.87,117.08c.09-2.03.03-3.91-2.81-3.85-1.93.04-3.97-.3-3.93,2.65.03,1.95-.23,3.99,2.75,3.77,1.82-.13,4.08.49,3.99-2.57ZM463.05,119.57c2.57.43,3.32-.79,3.34-3.23.02-2.48-.82-3.38-3.35-3.34-2.43.04-3.45.79-3.43,3.33.01,2.52.95,3.58,3.45,3.24ZM453.89,116.56c.23-2.31-.49-3.6-3.13-3.62-2.55-.02-4.03.52-3.96,3.5.06,2.55,1.16,3.31,3.53,3.27,2.25-.03,3.84-.47,3.56-3.15ZM441.11,116.59c.29-2.27-.35-3.66-3.03-3.59-2.07.06-3.83,0-3.74,2.9.07,2.18.33,3.76,3.11,3.59,2-.12,4.05.11,3.66-2.9ZM843.44,122.03c2.22.17,3.73-.29,3.76-2.99.03-2.37-.67-3.5-3.22-3.45-2.15.04-3.72.2-3.62,2.98.08,2.18.38,3.84,3.08,3.46ZM783.57,118.28c.45-2.83-1.42-2.84-3.5-3.09-2.84-.35-3.11,1.08-3.16,3.32-.05,2.56,1.1,3.29,3.47,3.3,2.55.01,3.49-1.1,3.19-3.53ZM669.31,117.93c.24-2.23-.15-3.77-2.98-3.61-2.13.12-3.77.19-3.7,3.04.06,2.27.44,3.66,3.15,3.59,2.18-.05,3.94-.19,3.54-3.02ZM732.8,118.3c.33-2.47-.71-3.5-3.25-3.5-2.52,0-3.41.97-3.39,3.45.02,2.21.79,3.1,3.02,3.05,2.1-.05,4.05-.03,3.63-3ZM691.41,114.55c-2.54-.39-3.25.89-3.31,3.26-.07,2.59,1.09,3.2,3.44,3.18,2.36-.02,3.47-.72,3.42-3.26-.05-2.51-1.15-3.44-3.55-3.17ZM834.28,118.38c.51-3.02-1.76-2.59-3.61-2.89-3.04-.49-2.85,1.43-2.95,3.47-.13,2.71,1.33,3.05,3.57,3.11,2.78.07,3.2-1.44,2.99-3.68ZM682.02,118.13c.23-2.24-.29-3.65-3.05-3.62-2.38.02-3.59.64-3.52,3.24.06,1.99.38,3.32,2.8,3.17,1.93-.12,4.13.34,3.77-2.79ZM631.24,117.06c.49-2.99-1.73-2.58-3.67-2.71-2.36-.16-2.84,1.04-2.88,3.1-.06,2.53,1,3.31,3.44,3.32,2.67.01,3.41-1.22,3.1-3.71ZM479.02,117.1c.07-2.01.16-3.93-2.81-3.87-2.13.04-3.88.11-3.74,2.97.09,1.78-.1,3.58,2.53,3.39,1.78-.13,4.17.71,4.03-2.49Z"/>
  <path class="cls-9" d="M1356.12,666.25H475.11c.38-17.41-1.91-34.4-7.76-50.89-6.74-18.97-18.48-32.98-38.2-39.46-8.46-2.78-17.17-4.52-25.94-5.49-40.6-4.49-78.4-17.23-113.66-37.61-12.24-7.08-24.56-14.37-28.63-29.29-5.72-20.97-6.15-42.57-6.99-64.1-.16-4.04,2.74-4.38,5.76-4.26,9.07.34,18.14.84,27.21,1.07,16.89.43,33.68-1.4,50.52-2.21,16.04-.77,32.15-1.87,47.22-7.19,9.37-3.31,14.67-.4,19.85,6.23.66.85,1.23,1.78,1.96,2.57,14.1,15.33,28.3,30.35,48.77,37.66,33.09,11.82,65.47,13.6,96.82-5.16,18.38-10.99,29.38-28.07,18.08-51.85-3.8-7.99-7.13-16.22-10.34-24.47-7.55-19.41-6.2-39.4-3.31-59.4,1.39-9.65,4.18-18.93,8.57-27.71,1.36-2.72,3.02-4.03,6.11-3.18,6.76,1.86,13.25,4.01,17.35,10.41,1.24,1.94,3.2,3.49,5.01,5,14.65,12.28,31.29,21.56,47.48,31.57,26.79,16.56,48.27,9.93,67.79-9.38,5.85-5.79,11.66-11.62,17.35-17.56,8.31-8.68,17.72-15.69,28.6-21.01,11.65-5.7,22.93-12.17,33.8-19.3,22.33-14.66,41.42-32.46,55.51-55.42,10.17-16.57,15.54-35.1,22.87-52.83,5.96-14.42,12.05-28.81,25.39-38.38.42,3.49-.44,7.19,3.76,9.53,11.29,6.28,22.4,12.91,33.54,19.46,3.05,1.79,5.99,2.17,9.11.25,6.41-3.93,12.85-7.82,19.28-11.72,2.3,1.32,4.22.48,6.39-.67,3.83-2.04,7.1-5.3,11.72-5.75,4.08,8.37,11.8,13.5,18.11,19.81,17.43,17.41,37.25,31.82,59.73,41.87,23.32,10.43,45.13,22.63,63.55,40.66,11.84,11.59,25.85,17.74,43.15,12.95,17.47-4.83,17.91-4.4,27.27,11.26.89,1.48,1.58,3.08,2.46,4.57,4.37,7.43,8.17,15.18,14.55,21.35,20.26,19.6,45.6,29.28,71.96,36.89,8.05,2.32,16.44,3.47,24.67,5.16-1.68.38-4.17-.58-4.27,2.42-.04,1.22-.13,3.11.54,3.54,1.07.69,3.03.96,4.14.42,2.8-1.36,1.42-3.88,1.01-6.04,2.22-.07,4.43-.14,6.65-.2,1,2.06-1.62,5.55,2.32,6.35,1.74.35,4.09.74,4.12-2.35,1.97,0,3.93,0,5.9.01.9,4.04,4.44,2.3,6.82,3.11.16.39.21.94.5,1.15,21.96,15.77,43.66,31.95,68.6,42.97,23.25,10.27,46.99,18.69,72.89,18.76,14.5.04,15.38,1.33,7.61,14.17-10.88,17.98-19.98,36.82-29.08,55.72-13.58,28.22-16.16,57.83-12.9,88.47.93,8.72,1.82,17.52-3.47,25.76-7.03,10.95-17.45,14.86-29.59,15.91-11.93,1.04-22.08,5.94-28.21,16.18-7.52,12.58-13.37,26.11-19.02,39.67ZM1095.06,346.16c2.54.06,5.6.85,5.22-3.44-.38-4.35-3.3-2.83-5.73-2.4l-1.14-1.1c-.04-3.89-.41-7.81-.04-11.66.5-5.24-1.54-8.32-6.17-10.83-10.07-5.46-19.87-11.44-29.73-17.28-3.15-1.87-6.17-3.01-9.67-.85-6.25,3.85-12.57,7.59-18.86,11.38-3.53-2.08-6.64-1.37-10.05.77-7.32,4.59-14.85,8.87-22.4,13.07-2.6,1.45-3.59,3.17-3.53,6.16.19,9.29.25,18.59-.02,27.88-.1,3.54,1.16,5.47,4.17,7.12,7.76,4.27,15.47,8.67,22.97,13.39,2.74,1.73,5.03,1.89,7.73.61,6.49,3.83,13.05,7.56,19.46,11.52,3.08,1.91,5.81,2.13,9,.21,10.9-6.53,21.87-12.96,32.88-19.3,2.95-1.7,4.25-3.93,4.18-7.33-.12-5.81.04-11.62.07-17.43.55-.16,1.1-.33,1.65-.49ZM1163.97,342.94c.41-2.78-1.22-3.16-3.51-3.12-2.15.04-3.13.81-3.12,3.07,0,2.39.79,3.56,3.37,3.61,2.63.05,3.52-1.12,3.26-3.56ZM1151.41,342.65c.38-2.8-1.67-2.71-3.74-2.81-2.41-.13-2.86,1.12-2.88,3.18-.03,2.42.76,3.55,3.37,3.49,2.59-.07,3.48-1.28,3.25-3.85ZM1113.22,342.8c.27-2.45-.75-3.5-3.33-3.45-2.62.05-3.29,1.34-3.3,3.67-.01,2.49,1.05,3.42,3.51,3.47,2.76.05,3.33-1.41,3.12-3.7ZM1202.12,343.27c.35-2.42-.71-3.38-3.22-3.41-2.52-.03-3.37.95-3.31,3.39.05,2.26.52,3.58,3.21,3.52,2.5-.06,3.53-1.05,3.33-3.5ZM1262.39,340.31c-2.54-.34-3.45.8-3.47,3.3-.02,2.57,1.08,3.34,3.51,3.33,2.27,0,3.04-.89,3.01-3.06-.03-2.15-.13-4.01-3.05-3.57ZM1249.73,346.85c2.89.33,3.11-1.44,3.16-3.63.06-2.87-1.7-2.93-3.82-2.98-2.57-.06-2.58,1.52-2.68,3.37-.14,2.52.84,3.65,3.34,3.24ZM1123.05,346.35c2.66.48,2.75-1.41,2.84-3.54.11-2.46-.86-3.43-3.34-3.39-2.57.04-3.19,1.32-3.21,3.62-.01,2.48,1.01,3.54,3.71,3.31ZM1138.66,343.08c.41-2.63-1.08-3.21-3.38-3.19-2.04.02-3.16.56-3.11,2.88.05,2.17.32,3.72,3.06,3.67,2.33-.05,3.71-.74,3.42-3.36ZM1176.56,343.07c.44-2.59-.99-3.13-3.31-3.16-2.61-.03-3.16,1.22-3.14,3.52.02,2.49,1.09,3.26,3.47,3.31,2.76.06,3.18-1.44,2.99-3.67ZM1189.36,342.98c.57-2.48-.95-2.98-3.25-3.07-2.6-.11-3.21,1.07-3.19,3.42.02,2.36.72,3.46,3.27,3.41,2.52-.05,3.45-1.15,3.16-3.76ZM1211.96,346.67c2.84.43,2.65-1.65,2.74-3.64.11-2.33-1.12-2.77-3.16-2.81-2.46-.05-3.44.88-3.39,3.35.04,2.55,1.29,3.39,3.81,3.11ZM1227.31,343.24c.42-2.78-1.28-3.01-3.46-2.99-2.17.02-2.96.9-2.97,3.04-.02,2.38.84,3.41,3.31,3.45,2.59.04,3.39-1.15,3.12-3.5ZM1236.98,340.31c-2.46-.38-3.41.71-3.28,3.18.1,1.9.39,3.26,2.77,3.23,2.15-.03,3.7-.3,3.73-3.02.02-2.33-.6-3.69-3.22-3.39ZM1274.77,340.37c-2.55-.51-3.05.98-3.11,3.34-.07,2.71,1.29,3.14,3.58,3.18,2.39.04,2.85-1.08,2.87-3.13.03-2.27-.36-3.86-3.34-3.39ZM1287.31,340.52c-2.71-.48-2.74,1.43-2.84,3.5-.11,2.26.91,2.89,3.01,2.9,2.29,0,3.55-.57,3.49-3.18-.05-2.45-1.03-3.51-3.66-3.22Z"/>
  <path class="cls-10" d="M892.32,134.6c-13.35,9.58-19.43,23.96-25.39,38.38-7.33,17.73-12.71,36.26-22.87,52.83-14.09,22.96-33.18,40.75-55.51,55.42-10.87,7.14-22.15,13.6-33.8,19.3-10.87,5.32-20.29,12.33-28.6,21.01-5.69,5.94-11.5,11.77-17.35,17.56-19.52,19.3-41,25.94-67.79,9.38-16.19-10.01-32.83-19.29-47.48-31.57-1.81-1.52-3.77-3.06-5.01-5-4.1-6.4-10.59-8.55-17.35-10.41-3.09-.85-4.75.46-6.11,3.18-4.39,8.78-7.18,18.07-8.57,27.71-2.89,20-4.24,39.99,3.31,59.4,3.21,8.25,6.54,16.48,10.34,24.47,11.3,23.78.3,40.86-18.08,51.85-31.35,18.75-63.72,16.98-96.82,5.16-20.47-7.31-34.68-22.33-48.77-37.66-.73-.79-1.3-1.72-1.96-2.57-5.17-6.63-10.47-9.54-19.85-6.23-15.07,5.32-31.19,6.42-47.22,7.19-16.84.81-33.63,2.64-50.52,2.21-9.07-.23-18.14-.73-27.21-1.07-3.02-.11-5.92.22-5.76,4.26.85,21.53,1.28,43.13,6.99,64.1,4.07,14.92,16.39,22.22,28.63,29.29,35.26,20.39,73.06,33.12,113.66,37.61,8.76.97,17.47,2.71,25.94,5.49,19.72,6.48,31.46,20.49,38.2,39.46,5.85,16.48,8.14,33.47,7.76,50.89h-35.14c.61-13.48-.79-26.73-4.9-39.61-4.16-13.03-9.36-17.21-23.06-17.41-44.9-.64-86.51-13.36-125.84-34.13-14.33-7.57-28.1-15.98-40.13-27.25-13.91-13.03-20.25-29.3-23.26-47.31-3.27-19.63-3.1-39.53-3.84-59.34-.39-10.39,2.94-20.03,9.11-28.49,5.44-7.45,12.72-11.42,22.16-11.39,20.38.06,40.81.87,61.12-.3,20.81-1.2,42.07.35,62.17-7.26,4.25-1.61,8.74-2.72,12.74-4.78,12.6-6.49,22.93-2.42,32.55,6.2,10.18,9.12,18.68,19.84,28.22,29.58,14.1,14.4,31.75,20.3,51.2,22.17,13.46,1.29,26.16-.64,37.82-8.13,3.95-2.54,4.67-4.7,2.39-8.83-9.23-16.78-16.08-34.55-18.35-53.61-3.94-33.19-.67-65.54,15.5-95.43,10.52-19.44,23.57-22.75,44.64-16.63,16.38,4.76,28.29,15.12,41,25.12,13.8,10.86,29.61,18.67,44.89,27.25,4.54,2.55,7.71.25,11.13-2.19,7.48-5.34,13.35-12.35,19.13-19.28,12.65-15.15,28.75-25.36,46.25-33.73,13.7-6.55,26.9-13.88,39.27-22.74,21.98-15.75,37.1-36.57,46.41-61.73,7.04-19.04,14.93-37.66,25.65-54.99,5.17,1.18,6.99-1.01,6.06-5.98,7.57-7.33,15.52-14.11,25.46-18.14,2.18-.88,4.27-2.05,6.74-1.85.13,6.51.27,13.02.41,19.52-2.24,2.28-3.27,4.56-.02,6.85-.09,4.06-.19,8.11-.28,12.17ZM872.12,118.97c.27-2.53-1.04-3.34-3.45-3.3-2.23.04-2.99,1.07-3.04,3.18-.06,2.54,1.09,3.39,3.52,3.34,2.25-.04,3.12-1.07,2.96-3.23ZM884.99,119.18c.29-2.53-1.01-3.43-3.4-3.48-2.22-.05-3.04.9-3.09,3.07-.06,2.47.87,3.52,3.39,3.44,2.11-.06,3.32-.73,3.1-3.03Z"/>
  <path class="cls-10" d="M1321.98,344.38c-1.97,0-3.93,0-5.9-.01.17-5.05-3.69-3.65-6.45-4-2.22.07-4.43.14-6.64.2-.47-.12-.94-.23-1.42-.35-8.23-1.69-16.62-2.84-24.67-5.16-26.35-7.61-51.69-17.29-71.96-36.89-6.38-6.17-10.17-13.91-14.55-21.35-.88-1.49-1.57-3.09-2.46-4.57-9.36-15.66-9.8-16.09-27.27-11.26-17.3,4.78-31.32-1.36-43.15-12.95-18.42-18.04-40.23-30.24-63.55-40.66-22.48-10.05-42.3-24.46-59.73-41.87-6.32-6.31-14.03-11.44-18.11-19.81.15-.39.21-1.04.46-1.12,13.3-4.62,18.79-13.95,16.93-27.76,6.62,3.68,10.34,10.27,15.18,15.63,19.06,21.07,40.01,39.31,66.62,50.52,22.54,9.5,43.02,22.31,59.98,40.23,1.77,1.87,4.15,3.15,5.94,5,5.19,5.36,10.89,5.66,17.7,3.16,23.92-8.77,32.75-4.27,50,16.97,5.82,7.16,9.95,15.67,15.04,23.44,3.71,5.68,8.41,10.55,14.32,13.91,21.92,12.47,44.38,22.9,70.25,25.11,19.54,1.67,37.06,9.88,52.48,22.22,3.87,3.1,8.05,5.8,12.09,8.69-1.3,5.82,2.28,6.45,6.65,6.25,5.72,1.13,9.77,5.35,14.66,8,20.41,11.06,41.28,20.91,64.31,25.28,8.95,1.7,18.08.86,27.13,1.72,19.84,1.87,30.94,17.34,25.23,36.54-4.12,13.85-12.52,25.52-19.36,38-10.07,18.37-19.97,36.83-25.41,57.29-4.81,18.09-4.94,36.35-1.73,54.52,6.35,35.93-16.7,67.63-53.26,72.26-4.91.62-8.29,2.3-10,7.52-1.94,5.9-4.95,11.46-7.49,17.16h-37.74c5.64-13.56,11.49-27.09,19.02-39.67,6.12-10.24,16.28-15.15,28.21-16.18,12.15-1.06,22.56-4.96,29.59-15.91,5.29-8.24,4.4-17.04,3.47-25.76-3.27-30.63-.68-60.25,12.9-88.47,9.09-18.9,18.2-37.75,29.08-55.72,7.77-12.84,6.89-14.13-7.61-14.17-25.9-.07-49.64-8.49-72.89-18.76-24.94-11.01-46.64-27.2-68.6-42.97-.29-.21-.34-.76-.5-1.15-.67-2.37,1.9-5.89-2.32-6.97-3.13-.8-4.19,1.19-4.5,3.86ZM1350.64,340.43c-2.23-.36-3.21.88-3.22,3.26-.02,2.53.91,4.06,3.68,3.98,2.77-.07,3.56-1.68,3.52-4.17-.04-2.57-1.47-3.26-3.99-3.07ZM1367.29,344.29c.02-2.28-.91-3.59-3.4-3.72-2.37-.12-3.67.55-3.63,3.17.03,2.3.82,3.71,3.28,3.82,2.31.11,3.75-.76,3.74-3.28ZM1338.2,340.47c-2.82-.16-2.89,1.72-2.96,3.76-.08,2.42.92,3.53,3.38,3.31,2.43-.21,3.1-1.65,3.1-3.87,0-2.5-1.19-3.42-3.52-3.2Z"/>
  <path class="cls-11" d="M993.51,116.81c1.86,13.81-3.62,23.14-16.93,27.76-.25.09-.31.74-.46,1.12-4.62.45-7.89,3.7-11.72,5.75-2.17,1.16-4.09,2-6.39.67-.77-1.28-2.07-1.53-3.4-1.72-5.11-4.44-11.18-7.42-17.13-10.37-6.06-3.01-9.65-6.76-8.39-13.84.05-4.72.71-9.52.02-14.13-1.6-10.67,1.46-18.27,12.23-21.88.86-.29,1.45-1.4,2.17-2.13,3.77-1.36,7.47-2.87,10.54-5.56.99-.6,1.98-1.2,2.97-1.8,2.66-1.22,5.01-1.27,7.75.42,7.86,4.84,15.85,9.49,23.99,13.86,3.39,1.82,4.3,4.14,4.2,7.73-.14,4.7-.59,9.45.56,14.12Z"/>
  <path class="cls-2" d="M127.96,106.6c0-4.75.36-9.53-.1-14.24-.49-5.11,1.61-6.47,6.28-5.98,2.99.32,6.05,0,9.08.08,13.32.33,19.54,7.16,19.37,21.21-.15,13.14-6.51,19.58-19.45,19.72q-15.18.16-15.18-14.98c0-1.94,0-3.88,0-5.83ZM136.59,106.98c0,3.23-.05,6.45.02,9.68.03,1.42-.3,2.94,1.6,3.77,5.29,2.31,14-1.63,15.11-7.17.81-4.02.83-8.18-.01-12.19-1.23-5.84-6.36-8.61-13.72-7.42-5.53.9-2.17,5.39-2.93,8.19-.44,1.6-.08,3.42-.07,5.14Z"/>
  <path class="cls-8" d="M1449.36,353.95c4.95-12.66,9.88-25.05,14.6-37.52,1.18-3.11,3.53-2.56,5.84-2.73,2.64-.19,4.34.49,5.43,3.3,4.74,12.25,9.74,24.41,14.7,36.74-5.63,2.07-9.76,1.5-11.13-4.98-.55-2.61-2.16-3.42-4.68-3.3-3.02.14-6.06.14-9.09,0-2.49-.12-4.31.55-4.78,3.19-1.02,5.88-4.7,7.01-10.89,5.31ZM1469.3,323.47c-1.89,5.15-3.04,8.55-4.38,11.87-.84,2.07-.7,3.39,1.88,3.33,2.34-.05,5.41.59,6.84-.62,2-1.7-.54-4.2-1.15-6.33-.63-2.21-1.64-4.32-3.18-8.26Z"/>
  <path class="cls-4" d="M343.94,125.49c-6.82,3.29-12.81,4.07-17.68-1.78-4.09-4.91-4.45-14.22-.97-20.29,2.21-3.86,5.43-6.46,9.97-6,4.5.46,8.76,2.58,13.51.4,2.25-1.03,3.32.92,3.31,3.32-.05,11.25-.1,22.5.03,33.75.04,3.24-1.34,4.04-4.3,3.97-2.69-.06-4.04-.85-3.9-3.73.14-2.96.03-5.93.03-9.64ZM343.97,112.41c-.15-3.88-.53-8.54-6.5-8.57-5.68-.03-6.27,4.72-6.22,8.77.06,4.24.5,9.41,6.49,9.28,5.29-.12,6.22-4.43,6.22-9.48Z"/>
  <path class="cls-2" d="M246.83,107.15c5.8-4.58,8.45-12.6,17.03-8.86.35.48.08,1.19-.51,1.91-7.43,9.07-7.39,9.05-1.68,19.21,1.34,2.39,3.27,4.56,3.62,7.36-7.31,3.06-9.36-2.34-12.07-7.04-.92-1.6-1.03-4.97-4.07-3.91-2.24.78-2.32,3.34-2.37,5.6-.05,2.78,1.18,6.11-4.04,6.11-5.76,0-4.06-3.86-4.1-6.69-.14-9.51-.04-19.02-.06-28.53,0-3-.71-6.05,4.27-5.98,5.24.07,3.85,3.53,3.92,6.27.12,4.43.03,8.86.03,14.55Z"/>
  <path class="cls-4" d="M1591.07,340.09c0,3.24-.28,6.5.06,9.7.61,5.68-3.48,6.14-6.32,4.35-2.73-1.72-4.02-.72-6.11.1-8.2,3.21-14.26-.7-14.63-9.51-.21-5.17.02-10.36-.11-15.53-.07-2.74.31-4.39,3.78-4.39,3.53,0,4.47,1.37,4.33,4.62-.2,4.52,0,9.06-.03,13.59-.03,3.14.88,5.86,4.39,6,3.72.15,6.14-1.93,6.27-5.88.15-4.53.27-9.06.14-13.59-.09-3.1.58-4.72,4.24-4.75,3.92-.03,4.09,2.06,4.02,4.92-.09,3.45-.02,6.9-.02,10.36Z"/>
  <path class="cls-4" d="M196.03,113.08c0,3.24-.27,6.5.07,9.7.48,4.54-2.47,5.92-5.34,4.35-3.39-1.85-5.66-.61-8.55.32-7.06,2.28-12.65-1.48-13.08-8.9-.34-5.81-.02-11.65-.21-17.47-.1-3.09,1.5-3.47,4.02-3.45,2.5.02,4.16.43,4.08,3.49-.13,4.96.01,9.92,0,14.89,0,3.2,1.11,5.78,4.61,5.8,3.35.02,5.83-1.8,5.99-5.49.2-4.74.35-9.49.19-14.23-.12-3.37,1.08-4.5,4.48-4.5,3.48,0,3.85,1.8,3.78,4.49-.09,3.67-.02,7.34-.02,11Z"/>
  <path class="cls-4" d="M204.2,112.65c0-3.67.21-7.35-.05-11.01-.28-3.88,2.23-4.95,4.74-3.77,3.52,1.65,6.17.9,9.58-.18,6.77-2.15,12.21,1.76,12.73,8.79.43,5.8.05,11.65.24,17.47.1,3.07-1.51,3.44-4.03,3.51-2.93.09-4.39-.67-4.28-3.93.17-4.74.04-9.5-.09-14.24-.08-2.95-.6-5.78-4.5-5.83-3.69-.04-5.74,2.19-6.02,5.52-.41,4.72-.48,9.49-.25,14.23.17,3.58-1.33,4.22-4.54,4.3-3.72.09-3.61-1.98-3.55-4.5.08-3.45.02-6.91.02-10.36Z"/>
  <path class="cls-8" d="M391.93,112.34c.13-8.71,5.29-14.75,12.85-15.06,8.4-.35,13.6,4.49,14.6,13.11.39,3.36-.31,4.86-3.95,4.61-3.23-.23-6.5-.2-9.73.02-1.83.12-5.04-1.23-4.77,2.37.25,3.28,2.81,4.67,6.02,4.5.81-.04,1.93-.38,2.32-.97,2.1-3.15,4.94-2.98,7.99-2.04.77.24,1.79.61,1.35,1.77-1.21,3.24-3.6,5.35-6.77,6.54-10.65,3.99-20.09-3.07-19.9-14.85ZM406.41,110.49c1.4-1.23,5.15,1.5,4.96-2.77-.13-3.04-2.6-4.45-5.36-4.51-2.87-.07-5.18,1.58-5.23,4.55-.07,4.05,3.44,1.83,5.63,2.73Z"/>
  <path class="cls-8" d="M268.3,112.65c0-8.98,5.33-15.2,13.2-15.38,8.32-.19,13.52,4.87,14.3,13.47.28,3.08-.39,4.45-3.69,4.26-3.24-.19-6.5-.17-9.74.02-1.76.1-4.15-1.04-5.08,1.48-.58,1.56.38,2.95,1.58,3.96,1.77,1.49,3.75,2.11,5.99,1,.19-.1.44-.17.55-.33,2.24-3.16,5.21-3.33,8.53-2.12.95.35,1.39,1.06.95,1.99-1.56,3.3-4.09,5.45-7.65,6.48-10.5,3.05-18.95-3.53-18.95-14.82ZM282.23,110.39c1.88-.89,5.36,1.55,5.51-2.44.12-3.09-2.39-4.53-5.12-4.73-2.87-.21-5.18,1.33-5.44,4.32-.37,4.21,3.22,2.06,5.05,2.85Z"/>
  <path class="cls-8" d="M1530.44,339.9c0-8.94,4.81-14.91,12.36-15.36,8.4-.5,13.88,4.24,14.98,12.72.45,3.45-.23,5.36-4.27,4.99-3-.27-6.06-.17-9.08,0-1.79.1-4.1-.92-5.16,1.42-.56,1.25.23,2.53,1.12,3.49,1.57,1.69,3.5,2.5,5.84,1.83.41-.12.9-.3,1.12-.61,2.23-3.16,5.2-3.36,8.52-2.18.93.33,1.35,1.04.95,2-1.44,3.42-4.06,5.47-7.57,6.51-10.58,3.12-18.81-3.37-18.81-14.81ZM1544.79,337.82c1.35-1.51,5.22,1.6,5.06-2.73-.11-2.94-2.54-4.55-5.34-4.65-3.23-.11-5.72,2-5.62,5.02.13,3.73,3.73,1.23,5.9,2.36Z"/>
  <path class="cls-4" d="M386.39,112.56c0,3.45-.27,6.93.07,10.35.46,4.69-3.37,6.01-5.34,4.18-3.71-3.43-5.87-.33-8.6.45-7.1,2.04-12.76-1.63-13.15-8.99-.29-5.6.04-11.22-.15-16.83-.1-3.08.98-4.09,4.09-4.12,3.35-.04,3.97,1.48,3.88,4.32-.14,4.31-.06,8.63,0,12.94.05,3.4.48,6.89,4.9,6.93,4.32.04,5.94-2.96,6.04-6.88.11-4.31.22-8.63.14-12.94-.05-2.77.41-4.39,3.84-4.39,3.52,0,4.53,1.37,4.34,4.62-.2,3.44-.05,6.9-.05,10.35Z"/>
  <path class="cls-8" d="M1625.62,353.85c-8.44,3.46-11.52-2.24-14.95-7.96-4.03,4.77-6.22,12.1-14.31,8.01,0,.01-.18-.57.03-.78,8.42-8.86,11.67-17.81-.64-26.74q8.19-2.36,14.96,6.17c3.08-4.74,6-9.99,13.42-6.9-1.01,3.71-3.87,6.45-6.14,9.43-2.17,2.86-2.4,5.09-.05,7.96,2.8,3.43,5.16,7.21,7.67,10.8Z"/>
  <path class="cls-2" d="M1524.69,334.6c0,5.38-.14,10.77.05,16.15.11,3.2-1.24,3.96-4.21,3.98-3.12.02-4.12-1.07-4.08-4.13.13-10.98.14-21.96,0-32.94-.04-3.23,1.33-3.97,4.24-4.04,3.16-.07,4.14,1.18,4.05,4.19-.16,5.59-.05,11.2-.05,16.79Z"/>
  <path class="cls-2" d="M957.02,80.69c-.99.6-1.98,1.2-2.98,1.79-5.41-3.08-10.82-6.15-16.22-9.25-1.88-1.08-3.51-2.04-5.87-.56-11.44,7.16-23.58,13.16-34.66,20.91-2.66,1.18-1.73,3.58-1.77,5.53-.11,5.48-.02,10.97,0,16.45-.96,0-1.93,0-2.89,0-.14-6.51-.27-13.01-.41-19.52.06-3.31,1.63-5.43,4.57-7.1,10.85-6.15,21.61-12.49,32.34-18.86,3.24-1.92,6.41-2.46,9.73-.46,6.07,3.65,12.11,7.36,18.16,11.04Z"/>
  <path class="cls-4" d="M1494.12,339.73c0-3.67-.04-7.34.02-11.01.02-1.42-.22-3.96,1.65-3.51,5.03,1.2,9.8-.22,14.68-.41,1.53-.06,3.2.79,2.29,2.87-.76,1.74-.3,5-3.55,4.32-5.57-1.17-6.29,2.6-6.69,6.32-.44,4.06-.47,8.19-.34,12.28.09,2.98-.71,4.22-3.95,4.14-2.96-.07-4.38-.74-4.17-3.99.24-3.66.06-7.34.06-11.01Z"/>
  <path class="cls-4" d="M302.09,112.37c0-3.02,0-6.05,0-9.07,0-.86.02-1.73.01-2.59-.02-1.69.8-3.73,2.39-2.85,5.35,2.94,10.75-2.77,15.81.43,1.73,1.1.13,2.77-.2,4.11-.36,1.44-.91,2.95-3.05,2.39-5-1.32-6.08,2.15-6.47,5.76-.44,4.06-.5,8.19-.43,12.28.05,2.98-.23,4.73-4.07,4.71-3.86-.02-4.15-1.86-4.03-4.81.15-3.45.03-6.91.03-10.36Z"/>
  <path class="cls-3" d="M767.34,114.84c2.25-.26,3.74.35,3.62,3.04-.09,1.96.15,3.93-2.8,3.92-2.41,0-4.18-.31-4.09-3.41.07-2.32.67-3.73,3.27-3.55Z"/>
  <path class="cls-7" d="M1414.92,347.72c-2.63.24-3.83-.74-3.81-3.29.02-2.26.53-3.7,3.21-3.76,2.5-.06,3.58.85,3.47,3.38-.09,2.09-.08,4.09-2.86,3.68Z"/>
  <path class="cls-7" d="M703.97,121.34c-2.48.27-3.46-.84-3.4-3.36.06-2.37.84-3.5,3.41-3.56,2.88-.06,3.75,1.17,3.76,3.86.01,2.79-1.51,3.24-3.77,3.06Z"/>
  <path class="cls-7" d="M755.67,121.8c-2.58.05-4.22-.44-4.33-3.1-.11-2.61.65-4.05,3.6-3.98,2.42.06,3.56.91,3.52,3.42-.04,2.23-.47,3.9-2.79,3.66Z"/>
  <path class="cls-7" d="M809.17,118.5c.15,2.37-.63,3.72-3.25,3.62-2.62-.1-3.85-1.14-3.86-3.9,0-2.82,1.62-2.98,3.76-3.03,2.43-.05,3.68.81,3.35,3.31Z"/>
  <path class="cls-7" d="M504.65,116.51c.29,2.36-.55,3.66-3.18,3.57-2.06-.07-3.92-.01-3.91-2.93,0-2.53.52-4.12,3.57-4.04,2.42.07,3.72.82,3.52,3.4Z"/>
  <path class="cls-7" d="M551.84,113.48c2.4-.22,3.57.74,3.63,3.3.07,2.82-1.1,3.84-3.86,3.78-2.63-.05-3.29-1.35-3.29-3.69,0-2.49,1.04-3.61,3.52-3.39Z"/>
  <path class="cls-7" d="M599.13,117.31c-.33-2.49.82-3.47,3.32-3.42,2.17.05,3.8.24,3.78,3.07-.01,2.66-.8,3.97-3.72,3.9-2.52-.06-3.58-1.07-3.38-3.55Z"/>
  <path class="cls-3" d="M567.88,116.96c.31,2.74-.9,3.6-3.34,3.54-2.38-.05-3.42-.88-3.48-3.39-.07-2.89,1.25-3.65,3.87-3.65,2.75,0,3.25,1.47,2.96,3.5Z"/>
  <path class="cls-1" d="M720.13,117.6c.19,2.15-.07,3.87-2.89,3.68-1.91-.13-3.92.24-3.88-2.75.03-2.37.23-4.13,3.34-4.07,2.31.05,3.74.54,3.44,3.14Z"/>
  <path class="cls-3" d="M745.66,117.95c.36,2.39-.66,3.43-3.18,3.39-2.16-.03-3.73-.25-3.67-3.03.05-2.27.51-3.66,3.19-3.54,2.15.1,3.9.36,3.65,3.17Z"/>
  <path class="cls-3" d="M796.39,118.31c.29,2.98-1.34,3.39-3.54,3.49-2.6.11-3.23-1.11-3.28-3.45-.05-2.71,1.33-3.15,3.58-3.11,2.34.04,3.84.63,3.24,3.07Z"/>
  <path class="cls-1" d="M818.45,122.02c-2.35.25-3.51-.56-3.62-3.12-.12-2.82.97-3.66,3.68-3.66,2.61,0,3.23,1.13,3.19,3.47-.04,2.32-.65,3.72-3.25,3.31Z"/>
  <path class="cls-3" d="M1405.13,344.05c.11,2.38-.52,3.72-2.89,3.61-2.67-.12-3.81-1.32-3.65-4.1.13-2.36,1.29-2.84,3.34-2.84,2.62,0,3.51,1.27,3.21,3.33Z"/>
  <path class="cls-1" d="M517.11,116.43c.25,2.23-.27,3.72-2.99,3.57-1.98-.11-3.82.05-3.79-2.86.03-2.47.44-4.02,3.45-3.98,2.42.03,3.63.76,3.34,3.27Z"/>
  <path class="cls-3" d="M542.65,116.88c.4,2.7-1.2,3.1-3.44,3.17-2.44.07-3.42-.79-3.41-3.3.01-2.53,1.04-3.35,3.47-3.27,2.36.07,3.68.84,3.38,3.41Z"/>
  <path class="cls-1" d="M614.97,114.04c2.15-.19,3.88.06,3.7,2.88-.12,1.91.23,3.91-2.76,3.87-2.38-.03-4.14-.24-4.08-3.33.04-2.31.54-3.73,3.14-3.43Z"/>
  <path class="cls-3" d="M593.38,116.81c.32,2.66-.81,3.64-3.25,3.69-2.31.05-3.57-.53-3.57-3.16,0-2.4.74-3.55,3.3-3.39,2.07.13,4.03.12,3.53,2.86Z"/>
  <path class="cls-3" d="M1379.77,347.96c-4.38.2-7.96-.43-6.65-6.25,7.69-3.72,6.35,2.14,6.65,6.25Z"/>
  <path class="cls-1" d="M577.55,120.4c-2.3.24-3.73-.39-3.64-3.11.06-1.95.26-3.42,2.74-3.28,1.9.11,4.03-.41,3.96,2.71-.05,2.16-.2,3.97-3.06,3.69Z"/>
  <path class="cls-1" d="M640.86,120.73c-2.3.32-3.51-.46-3.51-3.05,0-2.34.61-3.53,3.23-3.39,2.13.11,3.7.27,3.63,3.05-.06,2.34-.77,3.66-3.34,3.39Z"/>
  <path class="cls-1" d="M529.79,117c.42,2.97-1.52,2.94-3.63,3-2.23.06-3-.83-3.02-3.05-.02-2.48.87-3.46,3.39-3.45,2.55,0,3.58,1.03,3.25,3.5Z"/>
  <path class="cls-7" d="M656.9,117.8c.28,2.62-1.18,3.22-3.5,3.22-2.31,0-3.54-.6-3.6-3.21-.06-2.92,1.29-3.59,3.9-3.57,2.59.03,3.44,1.2,3.19,3.56Z"/>
  <path class="cls-5" d="M1392.36,344.22c.32,2.36-.98,2.88-3.03,2.97-2.47.11-3.46-.74-3.36-3.3.09-2.17.85-3.06,3.04-3.07,2.43-.01,3.68.87,3.35,3.4Z"/>
  <path class="cls-1" d="M491.88,117.07c.1,3.06-2.17,2.44-3.99,2.57-2.98.22-2.72-1.82-2.75-3.77-.04-2.95,2-2.62,3.93-2.65,2.84-.05,2.9,1.82,2.81,3.85Z"/>
  <path class="cls-5" d="M463.05,119.57c-2.5.34-3.44-.72-3.45-3.24-.01-2.55,1-3.29,3.43-3.33,2.53-.05,3.37.86,3.35,3.34-.02,2.45-.77,3.67-3.34,3.23Z"/>
  <path class="cls-7" d="M453.89,116.56c.28,2.69-1.31,3.12-3.56,3.15-2.37.04-3.48-.73-3.53-3.27-.07-2.98,1.41-3.52,3.96-3.5,2.64.02,3.36,1.31,3.13,3.62Z"/>
  <path class="cls-1" d="M441.11,116.59c.39,3.01-1.66,2.78-3.66,2.9-2.77.17-3.03-1.41-3.11-3.59-.1-2.9,1.66-2.84,3.74-2.9,2.68-.07,3.32,1.32,3.03,3.59Z"/>
  <path class="cls-3" d="M860.02,116.05c.93,4.97-.89,7.17-6.06,5.98-1.8-6.67-1.68-6.79,6.06-5.98Z"/>
  <path class="cls-1" d="M843.44,122.03c-2.7.38-3-1.28-3.08-3.46-.1-2.78,1.47-2.94,3.62-2.98,2.55-.05,3.25,1.08,3.22,3.45-.03,2.7-1.54,3.16-3.76,2.99Z"/>
  <path class="cls-3" d="M783.57,118.28c.29,2.42-.64,3.54-3.19,3.53-2.37-.01-3.53-.74-3.47-3.3.05-2.24.32-3.67,3.16-3.32,2.08.25,3.95.26,3.5,3.09Z"/>
  <path class="cls-5" d="M669.31,117.93c.4,2.83-1.36,2.97-3.54,3.02-2.71.06-3.09-1.33-3.15-3.59-.07-2.85,1.58-2.92,3.7-3.04,2.83-.16,3.22,1.39,2.98,3.61Z"/>
  <path class="cls-1" d="M732.8,118.3c.42,2.97-1.52,2.94-3.63,3-2.23.06-3-.83-3.02-3.05-.02-2.48.87-3.46,3.39-3.45,2.55,0,3.58,1.03,3.25,3.5Z"/>
  <path class="cls-1" d="M691.41,114.55c2.39-.27,3.49.66,3.55,3.17.05,2.55-1.06,3.24-3.42,3.26-2.35.02-3.51-.58-3.44-3.18.06-2.37.77-3.65,3.31-3.26Z"/>
  <path class="cls-5" d="M834.28,118.38c.21,2.25-.21,3.75-2.99,3.68-2.24-.06-3.7-.4-3.57-3.11.1-2.03-.09-3.95,2.95-3.47,1.85.3,4.12-.13,3.61,2.89Z"/>
  <path class="cls-5" d="M682.02,118.13c.36,3.13-1.84,2.67-3.77,2.79-2.42.15-2.75-1.18-2.8-3.17-.07-2.6,1.14-3.22,3.52-3.24,2.76-.03,3.29,1.39,3.05,3.62Z"/>
  <path class="cls-5" d="M631.24,117.06c.31,2.49-.43,3.72-3.1,3.71-2.45-.01-3.5-.79-3.44-3.32.04-2.06.52-3.26,2.88-3.1,1.94.13,4.15-.28,3.67,2.71Z"/>
  <path class="cls-5" d="M479.02,117.1c.14,3.21-2.25,2.37-4.03,2.5-2.62.19-2.44-1.61-2.53-3.39-.14-2.86,1.61-2.92,3.74-2.97,2.97-.06,2.88,1.85,2.81,3.86Z"/>
  <path class="cls-11" d="M1027.81,378.98c-2.7,1.28-4.99,1.12-7.73-.61-7.49-4.73-15.2-9.12-22.97-13.39-3.01-1.65-4.27-3.58-4.17-7.12.27-9.29.21-18.59.02-27.88-.06-2.99.93-4.72,3.53-6.16,7.56-4.2,15.08-8.48,22.4-13.07,3.41-2.14,6.52-2.85,10.05-.77.7,1.2,1.76,1.86,3.13,2.03,6.43,3.91,12.79,7.93,19.32,11.67,2.71,1.55,4.05,3.27,3.97,6.59-.23,9.24-.21,18.49,0,27.72.07,3.22-.98,5.11-3.79,6.7-6.74,3.81-13.29,7.95-19.92,11.96-1.65.18-2.82,1.13-3.84,2.34Z"/>
  <path class="cls-6" d="M1032.08,312c-1.37-.17-2.43-.82-3.13-2.03,6.29-3.78,12.61-7.53,18.86-11.38,3.5-2.16,6.53-1.02,9.67.85,9.86,5.85,19.66,11.82,29.73,17.28,4.62,2.51,6.67,5.59,6.17,10.83-.37,3.85,0,7.77.04,11.66,0,2.47,0,4.95,0,7.43-.04,5.81-.19,11.63-.07,17.44.07,3.4-1.23,5.63-4.18,7.33-11.01,6.35-21.98,12.77-32.88,19.3-3.19,1.91-5.92,1.69-9-.21-6.41-3.96-12.96-7.7-19.46-11.52,1.02-1.21,2.19-2.16,3.84-2.34,5.69,3.47,11.46,6.82,17.04,10.47,2.69,1.76,4.75.96,7.12-.45,10.02-5.95,20.05-11.88,30.19-17.62,2.59-1.47,3.63-3.16,3.54-6.13-.2-6.68-.9-13.5.11-20.03,2.35-15.13-2.47-25.25-17.38-30.77-6.98-2.59-12.96-9.59-19.84-10.3-7.31-.75-13.39,6.86-20.35,10.19Z"/>
  <path class="cls-6" d="M954.62,150.39c1.33.19,2.62.44,3.39,1.73-6.43,3.9-12.87,7.79-19.28,11.72-3.12,1.91-6.06,1.54-9.11-.25-11.14-6.55-22.25-13.17-33.54-19.46-4.2-2.34-3.34-6.04-3.76-9.53.1-4.06.19-8.11.29-12.17.98,0,1.96,0,2.94,0,.04,3.37.08,6.74.12,10.1-1.06,4.63.64,7.5,4.92,9.82,9.46,5.12,18.82,10.47,27.85,16.31,4.53,2.93,7.95,2.8,12.23-.2,4.38-3.08,9.28-5.41,13.96-8.08Z"/>
  <path class="cls-7" d="M1163.97,342.94c.26,2.44-.63,3.61-3.26,3.56-2.57-.05-3.36-1.22-3.37-3.61,0-2.25.97-3.02,3.12-3.07,2.29-.05,3.92.34,3.51,3.12Z"/>
  <path class="cls-7" d="M1151.41,342.65c.23,2.57-.66,3.79-3.25,3.85-2.61.07-3.4-1.06-3.37-3.49.03-2.06.48-3.31,2.88-3.18,2.07.11,4.11,0,3.74,2.81Z"/>
  <path class="cls-7" d="M1113.22,342.8c.2,2.29-.36,3.75-3.12,3.7-2.46-.05-3.52-.98-3.51-3.47,0-2.34.68-3.62,3.3-3.67,2.58-.05,3.6.99,3.33,3.45Z"/>
  <path class="cls-3" d="M1202.12,343.27c.2,2.45-.83,3.44-3.33,3.5-2.69.06-3.16-1.25-3.21-3.52-.05-2.44.79-3.42,3.31-3.39,2.51.03,3.56.98,3.22,3.41Z"/>
  <path class="cls-5" d="M1301.57,340.23c.47.12.95.23,1.42.35.41,2.16,1.79,4.68-1.01,6.04-1.1.54-3.07.26-4.14-.42-.67-.43-.59-2.32-.54-3.54.1-3,2.6-2.04,4.27-2.42Z"/>
  <path class="cls-1" d="M1262.39,340.31c2.92-.44,3.02,1.42,3.05,3.57.03,2.17-.74,3.05-3.01,3.06-2.44,0-3.53-.76-3.51-3.33.02-2.49.93-3.64,3.47-3.3Z"/>
  <path class="cls-1" d="M1249.73,346.85c-2.5.41-3.48-.72-3.34-3.24.1-1.85.11-3.43,2.68-3.37,2.12.05,3.88.11,3.82,2.98-.04,2.19-.27,3.95-3.16,3.63Z"/>
  <path class="cls-3" d="M1123.05,346.35c-2.69.22-3.72-.84-3.71-3.31.01-2.3.64-3.58,3.21-3.62,2.47-.04,3.45.94,3.34,3.39-.09,2.12-.18,4.01-2.84,3.54Z"/>
  <path class="cls-3" d="M1138.66,343.08c.29,2.61-1.1,3.31-3.42,3.36-2.74.05-3.01-1.5-3.06-3.67-.05-2.32,1.06-2.86,3.11-2.88,2.3-.02,3.79.55,3.38,3.19Z"/>
  <path class="cls-1" d="M1176.56,343.07c.19,2.23-.22,3.73-2.99,3.67-2.37-.05-3.45-.82-3.47-3.31-.02-2.3.53-3.55,3.14-3.52,2.32.02,3.75.57,3.31,3.16Z"/>
  <path class="cls-1" d="M1189.36,342.98c.29,2.61-.64,3.71-3.16,3.76-2.55.05-3.25-1.05-3.27-3.41-.02-2.35.59-3.53,3.19-3.42,2.3.09,3.82.59,3.25,3.07Z"/>
  <path class="cls-3" d="M1211.96,346.67c-2.52.28-3.76-.56-3.81-3.11-.04-2.47.93-3.4,3.39-3.35,2.03.04,3.26.48,3.16,2.81-.09,2,.1,4.08-2.74,3.64Z"/>
  <path class="cls-1" d="M1227.31,343.24c.28,2.35-.53,3.54-3.12,3.5-2.47-.04-3.33-1.07-3.31-3.45.02-2.14.8-3.02,2.97-3.04,2.18-.02,3.88.21,3.46,2.99Z"/>
  <path class="cls-1" d="M1236.98,340.31c2.62-.31,3.25,1.06,3.22,3.39-.03,2.71-1.58,2.99-3.73,3.02-2.39.03-2.67-1.33-2.77-3.23-.13-2.47.82-3.56,3.28-3.18Z"/>
  <path class="cls-5" d="M1274.77,340.37c2.97-.47,3.37,1.12,3.34,3.39-.02,2.06-.49,3.17-2.87,3.13-2.29-.04-3.65-.48-3.58-3.18.06-2.35.57-3.85,3.11-3.34Z"/>
  <path class="cls-1" d="M1287.31,340.52c2.63-.29,3.6.78,3.66,3.22.06,2.61-1.2,3.19-3.49,3.18-2.1,0-3.13-.63-3.01-2.9.11-2.07.14-3.98,2.84-3.5Z"/>
  <path class="cls-11" d="M1309.63,340.37c2.76.35,6.61-1.05,6.45,4-.04,3.09-2.38,2.7-4.12,2.35-3.95-.8-1.32-4.3-2.32-6.35Z"/>
  <path class="cls-5" d="M1321.98,344.38c.31-2.67,1.36-4.66,4.5-3.86,4.23,1.07,1.65,4.6,2.32,6.97-2.38-.81-5.92.93-6.82-3.11Z"/>
  <path class="cls-11" d="M1094.55,340.32c2.43-.43,5.35-1.95,5.73,2.4.38,4.29-2.68,3.5-5.22,3.44-.17-1.95-.34-3.89-.51-5.84Z"/>
  <path class="cls-10" d="M1094.55,340.32c.17,1.95.34,3.89.51,5.84-.55.16-1.1.33-1.65.49,0-2.48,0-4.96,0-7.43.38.37.76.74,1.14,1.11Z"/>
  <path class="cls-5" d="M895.55,122.44c-.98,0-1.96,0-2.94,0-3.24-2.29-2.21-4.57.02-6.85.96,0,1.93,0,2.89,0,3.82,2.27,3.93,4.56.03,6.87Z"/>
  <path class="cls-11" d="M872.12,118.97c.15,2.16-.71,3.18-2.96,3.23-2.43.05-3.58-.8-3.52-3.34.05-2.11.8-3.14,3.04-3.18,2.41-.05,3.72.77,3.45,3.3Z"/>
  <path class="cls-11" d="M884.99,119.18c.22,2.3-.99,2.97-3.1,3.03-2.52.07-3.45-.97-3.39-3.44.05-2.17.87-3.12,3.09-3.07,2.39.05,3.69.95,3.4,3.48Z"/>
  <path class="cls-1" d="M1350.64,340.43c2.52-.2,3.94.5,3.99,3.07.04,2.49-.76,4.1-3.52,4.17-2.77.07-3.7-1.46-3.68-3.98.02-2.38.99-3.61,3.22-3.26Z"/>
  <path class="cls-5" d="M1367.29,344.29c.01,2.52-1.43,3.39-3.74,3.28-2.46-.11-3.25-1.53-3.28-3.82-.04-2.62,1.26-3.29,3.63-3.17,2.49.13,3.41,1.44,3.39,3.72Z"/>
  <path class="cls-5" d="M1338.2,340.47c2.33-.23,3.52.7,3.52,3.2,0,2.23-.66,3.66-3.1,3.87-2.47.22-3.46-.89-3.38-3.31.07-2.04.14-3.92,2.96-3.76Z"/>
  <path class="cls-10" d="M895.55,122.44c3.9-2.31,3.79-4.59-.03-6.87-.01-5.49-.1-10.97,0-16.45.04-1.95-.89-4.36,1.77-5.53,8.51-1.09,16.99-2.49,25.53-3.16,6.93-.54,13.54-3.76,20.67-2.39-.72.73-1.3,1.84-2.17,2.13-10.78,3.61-13.83,11.22-12.23,21.88.69,4.61.03,9.41-.02,14.13-11.48.32-22.79,1.59-33.42,6.36-.04-3.37-.08-6.74-.12-10.1ZM910.81,119.17c.19-2.43-.96-3.42-3.36-3.46-2.48-.03-4.08.54-4,3.47.07,2.64,1.59,3.04,3.74,3.09,2.25.05,3.75-.53,3.61-3.11ZM919.38,115.83c-2.35-.11-2.97,1.21-3.02,3.24-.06,2.58,1.25,3.33,3.62,3.27,2.29-.06,2.92-1.25,2.96-3.28.05-2.56-1.23-3.47-3.56-3.24Z"/>
  <path class="cls-12" d="M895.67,132.54c10.64-4.76,21.94-6.04,33.42-6.36-1.26,7.07,2.33,10.83,8.39,13.84,5.95,2.95,12.02,5.93,17.13,10.37-4.67,2.66-9.57,5-13.96,8.07-4.28,3-7.7,3.13-12.23.2-9.03-5.83-18.39-11.19-27.85-16.31-4.28-2.32-5.98-5.19-4.92-9.82Z"/>
  <path class="cls-12" d="M943.5,88.04c-7.13-1.37-13.74,1.84-20.67,2.39-8.54.67-17.02,2.07-25.53,3.16,11.08-7.76,23.22-13.76,34.66-20.91,2.36-1.48,3.99-.51,5.87.56,5.4,3.09,10.81,6.16,16.22,9.25-3.07,2.69-6.76,4.2-10.54,5.56Z"/>
  <path class="cls-12" d="M136.59,106.98c0-1.72-.36-3.54.08-5.14.76-2.8-2.61-7.29,2.93-8.19,7.35-1.19,12.48,1.58,13.72,7.42.85,4.01.82,8.17.01,12.19-1.11,5.54-9.82,9.47-15.11,7.17-1.9-.83-1.57-2.35-1.6-3.77-.07-3.23-.02-6.45-.02-9.68Z"/>
  <path class="cls-12" d="M343.97,112.41c0,5.05-.94,9.36-6.22,9.48-5.99.13-6.43-5.04-6.49-9.28-.05-4.06.53-8.8,6.22-8.77,5.97.03,6.35,4.69,6.5,8.57Z"/>
  <path class="cls-12" d="M1032.08,312c6.95-3.33,13.04-10.94,20.35-10.19,6.88.71,12.85,7.71,19.84,10.3,14.91,5.53,19.73,15.64,17.38,30.77-1.01,6.53-.31,13.35-.11,20.03.09,2.97-.95,4.66-3.54,6.13-10.14,5.74-20.17,11.68-30.19,17.62-2.37,1.41-4.43,2.21-7.12.45-5.58-3.65-11.35-7-17.04-10.47,6.63-4.01,13.18-8.14,19.92-11.96,2.81-1.59,3.86-3.48,3.79-6.7-.2-9.24-.22-18.49,0-27.72.08-3.32-1.26-5.04-3.97-6.59-6.52-3.74-12.89-7.76-19.32-11.67ZM1087.81,342.71c.35-1.93-.6-2.96-2.8-3.13-2.43-.19-3.57.59-3.54,3.23.02,2.29.92,3.06,3.09,2.97,1.92-.08,3.52-.32,3.25-3.06ZM1072.07,339.61c-1.93-.04-3.27.44-3.39,2.83-.13,2.62,1.04,3.34,3.45,3.36,2.31.02,2.99-.95,2.95-3.1-.03-2.11-.66-3.35-3.02-3.08ZM1062.16,342.97c.18-2.1-.58-3.19-2.87-3.15-2.21.04-3.01,1.05-2.98,3.14.02,1.84.8,2.69,2.66,2.74,1.97.05,3.41-.36,3.19-2.73Z"/>
  <path class="cls-1" d="M910.81,119.17c.14,2.57-1.36,3.15-3.61,3.11-2.16-.05-3.68-.45-3.74-3.09-.07-2.93,1.52-3.51,4-3.47,2.4.03,3.54,1.03,3.36,3.46Z"/>
  <path class="cls-5" d="M919.38,115.83c2.33-.23,3.61.68,3.56,3.24-.04,2.03-.67,3.22-2.96,3.28-2.37.06-3.68-.69-3.62-3.27.04-2.03.66-3.35,3.02-3.24Z"/>
  <path class="cls-5" d="M1087.81,342.71c.27,2.74-1.33,2.98-3.25,3.06-2.17.09-3.07-.68-3.09-2.97-.02-2.63,1.11-3.42,3.54-3.23,2.2.17,3.14,1.21,2.8,3.13Z"/>
  <path class="cls-5" d="M1072.07,339.61c2.35-.27,2.98.97,3.02,3.08.03,2.15-.64,3.12-2.95,3.1-2.41-.02-3.58-.74-3.45-3.36.11-2.38,1.46-2.87,3.39-2.83Z"/>
  <path class="cls-11" d="M1062.16,342.97c.21,2.37-1.23,2.78-3.19,2.73-1.86-.05-2.64-.9-2.66-2.74-.03-2.09.77-3.11,2.98-3.14,2.29-.04,3.05,1.05,2.87,3.15Z"/>
</svg>